<svg xmlns="http://www.w3.org/2000/svg" xmlns:xlink="http://www.w3.org/1999/xlink" width="164.031" height="34.152" viewBox="0 0 164.031 34.152">
  <defs>
    <linearGradient id="linear-gradient" x1="0.5" x2="0.5" y2="1" gradientUnits="objectBoundingBox">
      <stop offset="0" stop-color="#3e75ff"/>
      <stop offset="1" stop-color="#3bf"/>
    </linearGradient>
  </defs>
  <g id="Group_7" data-name="Group 7" transform="translate(-14.743 -17.291)">
    <g id="Group_5" data-name="Group 5" transform="translate(45.711 26.945)">
      <path id="Path_41" data-name="Path 41" d="M95.5,50.194h3.276a6.8,6.8,0,0,1-1.663,2.384A7.956,7.956,0,0,1,91.7,54.73a7.57,7.57,0,0,1-3.044-.63,7.968,7.968,0,0,1-2.54-1.739,8.206,8.206,0,0,1-1.708-2.571,7.787,7.787,0,0,1-.62-3.074,7.674,7.674,0,0,1,1.068-3.936,8,8,0,0,1,2.873-2.9,7.506,7.506,0,0,1,3.891-1.068,8.071,8.071,0,0,1,2.978.565A7.916,7.916,0,0,1,97.152,41a7.055,7.055,0,0,1,1.7,2.464H95.64a5.132,5.132,0,0,0-1.789-1.391,5.068,5.068,0,0,0-2.213-.514,4.672,4.672,0,0,0-2.53.72,5.333,5.333,0,0,0-2.489,4.537,4.976,4.976,0,0,0,.69,2.533,5.321,5.321,0,0,0,1.86,1.908,4.691,4.691,0,0,0,2.49.715A5.144,5.144,0,0,0,95.5,50.194Z" transform="translate(-83.786 -38.814)" fill="#eef0f9"/>
      <path id="Path_42" data-name="Path 42" d="M127.768,47.961h2.741V59.4h-2.52v-1.22h-.04a2.976,2.976,0,0,1-2.9,1.593,5,5,0,0,1-1.976-.4,4.559,4.559,0,0,1-1.643-1.194,3.6,3.6,0,0,1-.721-1.089,4.339,4.339,0,0,1-.3-1.2,14.429,14.429,0,0,1-.065-1.467V47.961h2.741v5.614a5.6,5.6,0,0,0,.353,2.338,2.082,2.082,0,0,0,.806.867,2.2,2.2,0,0,0,1.149.313,1.906,1.906,0,0,0,1.9-.983,5.75,5.75,0,0,0,.484-2.535Z" transform="translate(-103.944 -43.858)" fill="#eef0f9"/>
      <path id="Path_43" data-name="Path 43" d="M153.888,50.659h-2.682a.89.89,0,0,0-.348-.615,1.15,1.15,0,0,0-.7-.212,1.161,1.161,0,0,0-.771.257.877.877,0,0,0-.307.711.691.691,0,0,0,.151.449,1.281,1.281,0,0,0,.378.312,2.956,2.956,0,0,0,.615.237c.258.074.395.114.408.121a12.009,12.009,0,0,1,1.89.706,3.212,3.212,0,0,1,1.2,1.029,2.919,2.919,0,0,1,.474,1.734,3.684,3.684,0,0,1-1.159,2.741A4.411,4.411,0,0,1,151.67,59a4.155,4.155,0,0,1-1.592.333,4.377,4.377,0,0,1-2.082-.5,3.723,3.723,0,0,1-1.482-1.4,4.3,4.3,0,0,1-.59-2.066h2.8a1.81,1.81,0,0,0,.5.922,1.313,1.313,0,0,0,.948.358,1.431,1.431,0,0,0,.9-.292.962.962,0,0,0,.378-.806.927.927,0,0,0-.182-.58,1.565,1.565,0,0,0-.489-.408,4.143,4.143,0,0,0-.7-.3l-.575-.192q-.9-.3-1.245-.454a3.629,3.629,0,0,1-.822-.544,2.972,2.972,0,0,1-1.109-2.389,3.254,3.254,0,0,1,.534-1.83,3.608,3.608,0,0,1,1.416-1.255,4.191,4.191,0,0,1,1.91-.444,3.693,3.693,0,0,1,1.795.469,3.737,3.737,0,0,1,1.376,1.281A3.2,3.2,0,0,1,153.888,50.659Z" transform="translate(-118.053 -43.412)" fill="#eef0f9"/>
      <path id="Path_44" data-name="Path 44" d="M166.592,54.717v-9h-1.351V43.276h1.351v-3.81h2.742v3.81h1.653v2.439h-1.653v9Z" transform="translate(-128.705 -39.174)" fill="#eef0f9"/>
      <path id="Path_45" data-name="Path 45" d="M185.753,47.151a5.793,5.793,0,0,1,2.345.479,6.052,6.052,0,0,1,3.2,3.276,6.184,6.184,0,0,1,.449,2.354,5.946,5.946,0,0,1-.464,2.339,6.11,6.11,0,0,1-5.649,3.73,5.857,5.857,0,0,1-3.021-.822,6.141,6.141,0,0,1-2.219-2.223,5.872,5.872,0,0,1-.822-3.024,6.021,6.021,0,0,1,1.805-4.339,6.18,6.18,0,0,1,4.379-1.769Zm-.121,2.681a3.375,3.375,0,0,0-2.355,1.048,3.252,3.252,0,0,0-.946,2.379,3.426,3.426,0,0,0,.438,1.688,3.263,3.263,0,0,0,1.2,1.245,3.192,3.192,0,0,0,1.666.453,3.337,3.337,0,0,0,1.721-.449,3.186,3.186,0,0,0,1.2-1.235,3.553,3.553,0,0,0-.01-3.417,3.308,3.308,0,0,0-2.909-1.714Z" transform="translate(-136.607 -43.412)" fill="#eef0f9"/>
      <path id="Path_46" data-name="Path 46" d="M209.717,58.955V47.514h2.51v1.058h.05A2.153,2.153,0,0,1,213.46,47.5a4.607,4.607,0,0,1,1.778-.348,4.089,4.089,0,0,1,1.728.373,3.53,3.53,0,0,1,1.335,1.048,1.916,1.916,0,0,1,.262.353,1.072,1.072,0,0,1,.294-.353,3.726,3.726,0,0,1,1.477-1.058,4.914,4.914,0,0,1,1.87-.363,4.384,4.384,0,0,1,3.489,1.421,3.624,3.624,0,0,1,.752,1.144,4.993,4.993,0,0,1,.337,1.28,12.673,12.673,0,0,1,.081,1.537v6.421h-2.741V52.867a9.277,9.277,0,0,0-.076-1.275,2.062,2.062,0,0,0-.337-.912,1.712,1.712,0,0,0-.449-.458,2.136,2.136,0,0,0-.589-.288,2.249,2.249,0,0,0-.675-.1,2.383,2.383,0,0,0-1.1.252,2,2,0,0,0-.8.736,2.965,2.965,0,0,0-.358,1.139,13.541,13.541,0,0,0-.075,1.543v5.453H216.9V52.867a8.14,8.14,0,0,0-.076-1.22,2.093,2.093,0,0,0-.357-.887,1.9,1.9,0,0,0-.759-.686,2.252,2.252,0,0,0-1.031-.242,1.917,1.917,0,0,0-1.5.545,2.438,2.438,0,0,0-.6,1.275,12.176,12.176,0,0,0-.116,1.85v5.453Z" transform="translate(-153.232 -43.412)" fill="#eef0f9"/>
      <path id="Path_47" data-name="Path 47" d="M263.185,54.459h-8.88a3.063,3.063,0,0,0,1.154,1.593,3.122,3.122,0,0,0,1.86.595,4.092,4.092,0,0,0,1.466-.267,2.623,2.623,0,0,0,1.094-.731h3.034a4.828,4.828,0,0,1-1.184,1.855,6.207,6.207,0,0,1-1.986,1.336,5.937,5.937,0,0,1-5.347-.318,6.007,6.007,0,0,1-2.192-2.2,5.861,5.861,0,0,1-.811-3,6.168,6.168,0,0,1,.8-3.09,6.032,6.032,0,0,1,2.2-2.248,5.9,5.9,0,0,1,3.08-.832,5.515,5.515,0,0,1,2.278.479,5.95,5.95,0,0,1,1.87,1.311,6.1,6.1,0,0,1,1.255,1.93,5.934,5.934,0,0,1,.454,2.288A12.5,12.5,0,0,1,263.185,54.459Zm-8.921-2.439h6.3a3.091,3.091,0,0,0-.7-1.164,3.238,3.238,0,0,0-1.094-.761,3.37,3.37,0,0,0-1.325-.262,3.457,3.457,0,0,0-1.965.61A2.97,2.97,0,0,0,254.265,52.02Z" transform="translate(-176.214 -43.412)" fill="#eef0f9"/>
      <path id="Path_48" data-name="Path 48" d="M281.564,58.955V47.514h2.49v1.038h.04a3.014,3.014,0,0,1,1.043-1.073,2.836,2.836,0,0,1,1.416-.328h.212v2.661a2.638,2.638,0,0,0-1.673.534,1.855,1.855,0,0,0-.534.661,2.346,2.346,0,0,0-.212.761q-.04.394-.04,1.018v6.169Z" transform="translate(-192.853 -43.412)" fill="#eef0f9"/>
    </g>
    <g id="Group_6" data-name="Group 6" transform="translate(145.52 26.945)">
      <path id="Path_49" data-name="Path 49" d="M310.467,47.05v-2.6h.192a3.186,3.186,0,0,0,1.588-.343,1.314,1.314,0,0,0,.6-1.25,1.258,1.258,0,0,0-.414-1,1.5,1.5,0,0,0-1.028-.363,1.157,1.157,0,0,0-.9.373,1.329,1.329,0,0,0-.338.927h-2.752a3.836,3.836,0,0,1,.544-1.981,4.045,4.045,0,0,1,1.472-1.462,3.871,3.871,0,0,1,1.976-.539,4.17,4.17,0,0,1,1.6.313,4.248,4.248,0,0,1,1.336.862,4.115,4.115,0,0,1,.912,1.3,3.836,3.836,0,0,1,.338,1.588,3.731,3.731,0,0,1-.325,1.567,2.762,2.762,0,0,1-1,1.164,3.213,3.213,0,0,1,1.341.9,4.023,4.023,0,0,1,.819,1.436,5.486,5.486,0,0,1,.268,1.724,4.871,4.871,0,0,1-.715,2.611,4.966,4.966,0,0,1-1.93,1.8,5.578,5.578,0,0,1-2.656.645,4.948,4.948,0,0,1-2.489-.66,5.117,5.117,0,0,1-1.85-1.774,4.936,4.936,0,0,1-.741-2.464h2.758a2.151,2.151,0,0,0,.372,1.129,2.439,2.439,0,0,0,.9.8,2.542,2.542,0,0,0,1.207.292,2.28,2.28,0,0,0,1.7-.706,2.338,2.338,0,0,0,.689-1.694,2.726,2.726,0,0,0-.271-1.229,2.179,2.179,0,0,0-.794-.877,2.5,2.5,0,0,0-.94-.4,6.351,6.351,0,0,0-1.181-.1Z" transform="translate(-306.305 -38.814)" fill="#eef0f9"/>
      <path id="Path_50" data-name="Path 50" d="M337.358,39.466h3.234l-3.4,5.181.764-.071a3.95,3.95,0,0,1,1.721.393,4.719,4.719,0,0,1,1.438,1.058,5.053,5.053,0,0,1,1.353,3.629,5.466,5.466,0,0,1-.7,2.7,5.329,5.329,0,0,1-1.91,1.991,5.026,5.026,0,0,1-2.666.741,5.229,5.229,0,0,1-2.1-.414,5.161,5.161,0,0,1-1.683-1.164,5.3,5.3,0,0,1-1.124-1.759,5.715,5.715,0,0,1-.4-2.117,6.281,6.281,0,0,1,1.118-3.528Zm-.211,7.651a2.455,2.455,0,0,0-1.268.337,2.5,2.5,0,0,0-.911.923,2.6,2.6,0,0,0-.337,1.32,2.893,2.893,0,0,0,.322,1.355,2.5,2.5,0,0,0,.911.988,2.4,2.4,0,0,0,1.3.368,2.45,2.45,0,0,0,1.278-.348,2.531,2.531,0,0,0,.92-.942,2.579,2.579,0,0,0,.337-1.29,2.77,2.77,0,0,0-.342-1.351,2.651,2.651,0,0,0-.931-.993A2.373,2.373,0,0,0,337.147,47.117Z" transform="translate(-320.414 -39.174)" fill="#eef0f9"/>
      <path id="Path_51" data-name="Path 51" d="M367.865,44.177v5.181a7.179,7.179,0,0,1-.273,2.061,4.215,4.215,0,0,1-.928,1.638,4.946,4.946,0,0,1-1.716,1.225,5.116,5.116,0,0,1-2.078.449,5.267,5.267,0,0,1-3.824-1.492,3.982,3.982,0,0,1-.868-1.139,4.631,4.631,0,0,1-.429-1.346,9.561,9.561,0,0,1-.116-1.517v-5.06a5.393,5.393,0,0,1,1.18-3.69,4.6,4.6,0,0,1,1.11-.912,5.505,5.505,0,0,1,1.347-.565,5.564,5.564,0,0,1,1.468-.2,5.629,5.629,0,0,1,2.039.373,4.789,4.789,0,0,1,1.685,1.089A4.178,4.178,0,0,1,367.547,42,7.037,7.037,0,0,1,367.865,44.177Zm-7.469.04v4.939a3.24,3.24,0,0,0,.534,2.087,2.49,2.49,0,0,0,.827.59,2.352,2.352,0,0,0,.968.217,2.49,2.49,0,0,0,1.043-.227,2.249,2.249,0,0,0,.821-.62,3.137,3.137,0,0,0,.534-2.006v-5.08a2.783,2.783,0,0,0-.635-1.885,2.206,2.206,0,0,0-1.764-.736,2.374,2.374,0,0,0-1,.222,2.272,2.272,0,0,0-.816.625,2.345,2.345,0,0,0-.4.846A4.342,4.342,0,0,0,360.4,44.217Z" transform="translate(-334.611 -38.814)" fill="#eef0f9"/>
    </g>
    <path id="Path_52" data-name="Path 52" d="M44.167,46.159A17.026,17.026,0,0,1,32.72,51.42l-.3.013c-.139,0-.274.009-.413.009h-.274c-.139,0-.274,0-.413-.009l-.305-.013c-.292-.016-.583-.04-.872-.071A17.069,17.069,0,0,1,31.514,17.3c.135,0,.265,0,.4,0,.1,0,.2,0,.305,0a17.032,17.032,0,0,1,10.76,4.149l-2.5,2.889a2.333,2.333,0,0,1-2.947.471,11,11,0,0,0-5.279-1.57c-.112-.009-.224-.009-.341-.009-.148,0-.291,0-.435.009A11.024,11.024,0,0,0,25.8,24.992c-.068.045-.139.09-.206.135a11.128,11.128,0,0,0,5.727,20.364c.2.009.395.013.592.013.166,0,.336,0,.5-.013a11.072,11.072,0,0,0,3.862-.911,11.437,11.437,0,0,0,1.915-1.072,2.366,2.366,0,0,1,.426-.242,2.74,2.74,0,0,1,3.05.5Z" fill="url(#linear-gradient)"/>
    <path id="Path_53" data-name="Path 53" d="M52.15,48.42a5.65,5.65,0,1,1-5.656-5.644A5.647,5.647,0,0,1,52.15,48.42Z" transform="translate(-14.397 -14.054)" fill="#eef0f9"/>
    <path id="Path_54" data-name="Path 54" d="M50.1,77.779A17.026,17.026,0,0,1,38.649,83.04l-.3.013c-.139,0-.274.009-.413.009h-.274c-.139,0-.274,0-.413-.009l-.305-.013a17.026,17.026,0,0,1-11.447-5.261L28,75.388a2.746,2.746,0,0,1,3.055-.5,2.365,2.365,0,0,1,.426.242A11.239,11.239,0,0,0,33.387,76.2a11.074,11.074,0,0,0,3.862.911c.2.009.395.013.592.013.166,0,.336,0,.5-.013a10.969,10.969,0,0,0,6.2-2.225,2.74,2.74,0,0,1,3.05.5Z" transform="translate(-5.928 -31.62)" fill="#eef0f9"/>
  </g>
</svg>
