<svg version="1.2" xmlns="http://www.w3.org/2000/svg" viewBox="0 0 165 35" width="165" height="35">
	<title>logo-light-svg</title>
	<style>
		.s0 { fill: #eef0f9 } 
		.s1 { fill: #aa20a6 } 
	</style>
	<g id="Group_7">
		<g id="Group_5">
			<path id="Path_41" class="s0" d="m42.7 21h3.3q-0.2 0.4-0.4 0.7-0.1 0.3-0.3 0.6-0.3 0.3-0.5 0.6-0.2 0.3-0.5 0.5-0.6 0.5-1.2 0.9-0.6 0.4-1.3 0.7-0.7 0.3-1.4 0.4-0.8 0.2-1.5 0.2-0.4 0-0.8-0.1-0.4 0-0.8-0.1-0.4-0.1-0.7-0.2-0.4-0.1-0.8-0.3-0.3-0.1-0.7-0.3-0.3-0.2-0.6-0.4-0.3-0.2-0.6-0.5-0.3-0.2-0.6-0.5-0.3-0.3-0.5-0.6-0.3-0.3-0.5-0.6-0.2-0.3-0.4-0.7-0.2-0.3-0.3-0.7-0.2-0.3-0.3-0.7-0.1-0.4-0.2-0.8-0.1-0.4-0.1-0.8 0-0.3 0-0.7 0-0.6 0-1.1 0.1-0.5 0.2-1 0.2-0.5 0.4-1 0.2-0.4 0.4-0.9 0.3-0.4 0.6-0.8 0.3-0.4 0.7-0.8 0.4-0.4 0.8-0.7 0.4-0.3 0.8-0.6 0.4-0.2 0.9-0.4 0.5-0.2 1-0.4 0.5-0.1 1-0.2 0.5-0.1 1 0 0.4 0 0.8 0 0.3 0 0.7 0.1 0.4 0.1 0.8 0.2 0.3 0.1 0.7 0.2 0.3 0.2 0.7 0.3 0.3 0.2 0.6 0.4 0.4 0.2 0.7 0.4 0.3 0.3 0.5 0.5 0.3 0.3 0.6 0.6 0.2 0.3 0.4 0.6 0.2 0.3 0.4 0.6 0.2 0.4 0.3 0.7h-3.2q-0.2-0.2-0.4-0.4-0.2-0.2-0.4-0.4-0.2-0.2-0.5-0.3-0.2-0.2-0.5-0.3-0.2-0.1-0.5-0.2-0.3-0.1-0.5-0.2-0.3 0-0.6-0.1-0.3 0-0.6 0-0.3 0-0.6 0-0.4 0.1-0.7 0.2-0.3 0.1-0.6 0.2-0.3 0.1-0.6 0.3-0.6 0.4-1 0.9-0.5 0.5-0.8 1.1-0.4 0.6-0.5 1.2-0.2 0.7-0.2 1.4 0 0.3 0 0.6 0.1 0.3 0.2 0.7 0.1 0.3 0.2 0.6 0.1 0.3 0.3 0.6 0.2 0.3 0.4 0.6 0.2 0.2 0.4 0.5 0.2 0.2 0.5 0.4 0.3 0.2 0.6 0.4 0.2 0.2 0.5 0.3 0.3 0.1 0.6 0.2 0.4 0.1 0.7 0.2 0.3 0 0.6 0 0.6 0 1.1-0.1 0.6-0.1 1.1-0.4 0.4-0.2 0.9-0.5 0.4-0.4 0.8-0.8z"/>
			<path id="Path_42" class="s0" d="m54.8 13.8h2.7v11.4h-2.5v-1.2q-0.2 0.4-0.5 0.7-0.3 0.3-0.7 0.5-0.4 0.2-0.9 0.3-0.4 0.1-0.8 0.1-0.3 0-0.5-0.1-0.3 0-0.5 0-0.3-0.1-0.5-0.2-0.3 0-0.5-0.1-0.2-0.1-0.5-0.3-0.2-0.1-0.4-0.2-0.2-0.2-0.4-0.4-0.2-0.1-0.3-0.3-0.2-0.1-0.3-0.3-0.1-0.1-0.2-0.2 0-0.2-0.1-0.3-0.1-0.2-0.2-0.3 0-0.2-0.1-0.3 0-0.2-0.1-0.3 0-0.2 0-0.3-0.1-0.2-0.1-0.3 0-0.2 0-0.4 0-0.2 0-0.3 0-0.2 0-0.4 0-0.2 0-0.4v-6.4h2.7v5.6q0 0.3 0 0.6 0 0.3 0.1 0.6 0 0.3 0.1 0.5 0.1 0.3 0.2 0.6 0 0.1 0.1 0.3 0.1 0.1 0.2 0.2 0.1 0.1 0.2 0.2 0.1 0.1 0.3 0.2 0.1 0.1 0.2 0.1 0.2 0.1 0.3 0.1 0.2 0.1 0.3 0.1 0.2 0 0.3 0 0.3 0 0.6 0 0.3-0.1 0.5-0.2 0.3-0.1 0.5-0.3 0.2-0.2 0.3-0.5 0.1-0.3 0.2-0.6 0.1-0.3 0.2-0.6 0.1-0.4 0.1-0.7 0-0.3 0-0.6z"/>
			<path id="Path_43" class="s0" d="m66.8 16.9h-2.7q0-0.1 0-0.2 0-0.1-0.1-0.1 0-0.1-0.1-0.2-0.1-0.1-0.1-0.1-0.1-0.1-0.2-0.1-0.1-0.1-0.2-0.1 0 0-0.1 0-0.1 0-0.2 0-0.1 0-0.2 0-0.1 0-0.2 0-0.1 0.1-0.2 0.1-0.1 0.1-0.2 0.1-0.1 0.1-0.1 0.2-0.1 0.1-0.1 0.2-0.1 0-0.1 0.1 0 0.1 0 0.2 0 0.1 0 0.2 0 0 0 0.1 0.1 0 0.1 0.1 0 0 0 0.1 0.1 0 0.1 0.1 0.1 0 0.1 0.1 0.1 0 0.1 0 0.1 0.1 0.1 0.1 0.1 0 0.2 0.1 0 0 0.1 0 0.1 0.1 0.2 0.1 0.1 0 0.1 0 0.4 0.2 0.4 0.2 0.3 0 0.5 0.1 0.3 0.1 0.5 0.2 0.2 0.1 0.5 0.2 0.2 0.1 0.4 0.2 0.2 0.1 0.4 0.2 0.1 0.1 0.3 0.2 0.2 0.1 0.3 0.3 0.1 0.1 0.2 0.3 0.2 0.2 0.3 0.4 0.1 0.2 0.1 0.4 0.1 0.2 0.1 0.5 0 0.2 0 0.4 0 0.4-0.1 0.8 0 0.4-0.2 0.7-0.1 0.4-0.3 0.7-0.3 0.3-0.5 0.6-0.2 0.1-0.4 0.2-0.1 0.2-0.3 0.3-0.2 0.1-0.3 0.2-0.2 0.1-0.4 0.1-0.2 0.1-0.4 0.2-0.2 0-0.4 0.1-0.2 0-0.4 0.1-0.2 0-0.4 0-0.3 0-0.5-0.1-0.3 0-0.6 0-0.2-0.1-0.5-0.2-0.2-0.1-0.5-0.2-0.2-0.1-0.4-0.3-0.2-0.1-0.4-0.3-0.2-0.2-0.4-0.4-0.1-0.2-0.3-0.4-0.1-0.3-0.2-0.5-0.1-0.3-0.2-0.5-0.1-0.3-0.1-0.6-0.1-0.2-0.1-0.5h2.8q0.1 0.1 0.1 0.3 0.1 0.1 0.1 0.2 0.1 0.1 0.2 0.2 0 0.1 0.1 0.2 0.1 0.1 0.2 0.2 0.2 0.1 0.3 0.1 0.1 0.1 0.2 0.1 0.2 0 0.3 0 0.1 0 0.2 0 0.1 0 0.3-0.1 0.1 0 0.2-0.1 0.1 0 0.2-0.1 0.1-0.1 0.2-0.2 0-0.1 0.1-0.2 0-0.1 0-0.2 0.1-0.1 0.1-0.2 0-0.1 0-0.2-0.1 0-0.1-0.1 0-0.1 0-0.2-0.1 0-0.1-0.1-0.1-0.1-0.1-0.1-0.1-0.1-0.1-0.1-0.1-0.1-0.2-0.1 0-0.1-0.1-0.1-0.1 0-0.2-0.1-0.1 0-0.1-0.1-0.1 0-0.2 0-0.1-0.1-0.2-0.1l-0.6-0.2q-0.9-0.3-1.2-0.4-0.1-0.1-0.2-0.2-0.2 0-0.3-0.1-0.1-0.1-0.2-0.1-0.1-0.1-0.1-0.2-0.3-0.2-0.5-0.5-0.2-0.2-0.4-0.6-0.1-0.3-0.2-0.6-0.1-0.3-0.1-0.7 0-0.2 0.1-0.5 0-0.2 0.1-0.4 0-0.3 0.1-0.5 0.1-0.2 0.3-0.4 0.1-0.2 0.3-0.4 0.1-0.2 0.3-0.3 0.2-0.2 0.4-0.3 0.2-0.2 0.4-0.3 0.2-0.1 0.4-0.2 0.3 0 0.5-0.1 0.3-0.1 0.5-0.1 0.3 0 0.5 0 0.2 0 0.5 0 0.2 0.1 0.4 0.1 0.3 0.1 0.5 0.2 0.2 0 0.4 0.2 0.2 0.1 0.4 0.2 0.2 0.2 0.4 0.3 0.1 0.2 0.3 0.4 0.1 0.1 0.3 0.3 0.1 0.2 0.2 0.5 0.1 0.2 0.2 0.4 0 0.2 0.1 0.4 0 0.3 0 0.5z"/>
			<path id="Path_44" class="s0" d="m68.9 25.2v-9h-1.4v-2.4h1.4v-3.9h2.7v3.9h1.6v2.4h-1.6v9z"/>
			<path id="Path_45" fill-rule="evenodd" class="s0" d="m80.1 13.4q0.3 0 0.6 0 0.3 0 0.6 0.1 0.3 0.1 0.6 0.2 0.3 0.1 0.6 0.2 0.5 0.2 1 0.5 0.5 0.4 0.9 0.8 0.4 0.4 0.7 0.9 0.3 0.5 0.6 1 0.1 0.3 0.2 0.6 0 0.3 0.1 0.6 0.1 0.3 0.1 0.6 0 0.3 0 0.6 0 0.3 0 0.6 0 0.3-0.1 0.6-0.1 0.3-0.2 0.6 0 0.3-0.2 0.5-0.3 0.9-0.9 1.6-0.6 0.7-1.3 1.2-0.8 0.5-1.6 0.7-0.9 0.3-1.8 0.3-0.4 0-0.8-0.1-0.4 0-0.8-0.1-0.4-0.1-0.7-0.3-0.4-0.1-0.7-0.4-0.4-0.2-0.7-0.4-0.3-0.2-0.6-0.5-0.3-0.3-0.5-0.6-0.2-0.3-0.4-0.7-0.2-0.3-0.4-0.7-0.2-0.3-0.3-0.7-0.1-0.4-0.1-0.8-0.1-0.4-0.1-0.8 0-0.6 0.1-1.2 0.2-0.6 0.4-1.2 0.2-0.5 0.6-1 0.3-0.5 0.7-0.9 0.5-0.5 1-0.8 0.5-0.3 1.1-0.6 0.5-0.2 1.1-0.3 0.6-0.1 1.2-0.1zm-0.1 2.7q-0.3 0-0.7 0.1-0.3 0-0.6 0.2-0.3 0.1-0.6 0.3-0.2 0.2-0.5 0.4-0.2 0.3-0.4 0.5-0.2 0.3-0.3 0.6-0.1 0.3-0.2 0.6 0 0.4 0 0.7 0 0.2 0 0.4 0 0.3 0.1 0.5 0.1 0.2 0.1 0.4 0.1 0.2 0.2 0.4 0.1 0.2 0.3 0.4 0.1 0.1 0.2 0.3 0.2 0.2 0.4 0.3 0.1 0.1 0.3 0.2 0.2 0.1 0.4 0.2 0.2 0.1 0.4 0.2 0.2 0 0.5 0.1 0.2 0 0.4 0 0.2 0 0.4 0 0.3-0.1 0.5-0.1 0.2-0.1 0.4-0.2 0.2 0 0.4-0.2 0.2-0.1 0.4-0.2 0.1-0.1 0.3-0.3 0.2-0.2 0.3-0.3 0.1-0.2 0.2-0.4 0.2-0.4 0.3-0.8 0.2-0.5 0.1-0.9 0-0.5-0.1-0.9-0.1-0.4-0.3-0.8-0.2-0.4-0.5-0.7-0.3-0.3-0.7-0.6-0.4-0.2-0.8-0.3-0.5-0.1-0.9-0.1z"/>
			<path id="Path_46" class="s0" d="m87.5 25.2v-11.4h2.5v1q0.1-0.2 0.2-0.3 0.1-0.2 0.3-0.3 0.2-0.2 0.3-0.3 0.2-0.1 0.4-0.2 0.2 0 0.4-0.1 0.2-0.1 0.5-0.1 0.2-0.1 0.4-0.1 0.2 0 0.5 0 0.2 0 0.4 0 0.2 0 0.5 0.1 0.2 0 0.4 0.1 0.2 0.1 0.4 0.2 0.2 0.1 0.4 0.2 0.2 0.1 0.3 0.2 0.2 0.1 0.4 0.3 0.1 0.1 0.2 0.3 0.1 0.1 0.1 0.1 0 0 0.1 0.1 0 0 0 0.1 0.1 0 0.1 0.1 0-0.1 0.1-0.1 0-0.1 0-0.1 0.1-0.1 0.1-0.1 0 0 0.1-0.1 0.1-0.2 0.3-0.3 0.2-0.2 0.4-0.3 0.2-0.1 0.4-0.2 0.2-0.2 0.4-0.2 0.2-0.1 0.4-0.2 0.3-0.1 0.5-0.1 0.2-0.1 0.5-0.1 0.2 0 0.4 0 0.5 0 1 0 0.5 0.1 0.9 0.3 0.5 0.2 0.9 0.5 0.4 0.3 0.7 0.6 0.1 0.1 0.3 0.3 0.1 0.1 0.2 0.3 0.1 0.1 0.1 0.2 0.1 0.2 0.2 0.4 0 0.1 0.1 0.3 0 0.1 0.1 0.3 0 0.1 0.1 0.3 0 0.2 0 0.3 0 0.2 0.1 0.4 0 0.2 0 0.4 0 0.2 0 0.4 0 0.2 0 0.4v6.4h-2.7v-6.1q0-0.2 0-0.3 0-0.2-0.1-0.3 0-0.2 0-0.3 0-0.2 0-0.4 0-0.1-0.1-0.2 0-0.1 0-0.2-0.1-0.2-0.1-0.3-0.1-0.1-0.2-0.2 0 0-0.1-0.1 0-0.1-0.1-0.1 0-0.1-0.1-0.1 0-0.1-0.1-0.1-0.1-0.1-0.1-0.1-0.1-0.1-0.2-0.1-0.1 0-0.1-0.1-0.1 0-0.2 0-0.1 0-0.2-0.1 0 0-0.1 0-0.1 0-0.2 0-0.1 0-0.2 0-0.1 0-0.3 0-0.1 0-0.2 0-0.2 0.1-0.3 0.1-0.1 0.1-0.3 0.1-0.1 0.1-0.2 0.2-0.1 0-0.2 0.1-0.1 0.1-0.2 0.2-0.1 0.1-0.2 0.3 0 0.1-0.1 0.2-0.1 0.2-0.1 0.3-0.1 0.2-0.1 0.3 0 0.2 0 0.3 0 0.2-0.1 0.4 0 0.2 0 0.4 0 0.2 0 0.4 0 0.2 0 0.3v5.5h-2.8v-6.1q0-0.1 0-0.3 0-0.1 0-0.3 0-0.2 0-0.3 0-0.2 0-0.3-0.1-0.1-0.1-0.2 0-0.2-0.1-0.3 0-0.1-0.1-0.2 0-0.1-0.1-0.2-0.1-0.1-0.1-0.2-0.1-0.1-0.2-0.2-0.1-0.1-0.2-0.2-0.1 0-0.3-0.1-0.1 0-0.2-0.1-0.1 0-0.3-0.1-0.1 0-0.2 0-0.2 0-0.3 0-0.2 0-0.4 0-0.2 0-0.4 0.1-0.2 0.1-0.4 0.2-0.1 0.1-0.3 0.2-0.1 0.2-0.2 0.3-0.1 0.2-0.2 0.3-0.1 0.2-0.1 0.3-0.1 0.2-0.1 0.4 0 0.2 0 0.5-0.1 0.2-0.1 0.4 0 0.2 0 0.5 0 0.2 0 0.4v5.5z"/>
			<path id="Path_47" fill-rule="evenodd" class="s0" d="m117.9 20.7h-8.8q0 0.2 0.1 0.5 0.2 0.2 0.3 0.4 0.2 0.2 0.3 0.4 0.2 0.1 0.4 0.3 0.2 0.1 0.4 0.3 0.3 0.1 0.5 0.1 0.2 0.1 0.5 0.2 0.2 0 0.5 0 0.2 0 0.3 0 0.2 0 0.4-0.1 0.2 0 0.4-0.1 0.2 0 0.3-0.1 0.2 0 0.3-0.1 0.2-0.1 0.3-0.2 0.2-0.1 0.3-0.2 0.1-0.1 0.2-0.2h3.1q-0.1 0.3-0.2 0.5-0.2 0.3-0.3 0.5-0.2 0.2-0.3 0.4-0.2 0.3-0.4 0.4-0.2 0.3-0.5 0.5-0.2 0.1-0.4 0.3-0.3 0.2-0.6 0.3-0.2 0.2-0.5 0.3-0.6 0.3-1.3 0.4-0.7 0.1-1.4 0.1-0.7-0.1-1.4-0.3-0.6-0.2-1.3-0.5-0.3-0.2-0.6-0.5-0.3-0.2-0.6-0.5-0.3-0.3-0.5-0.6-0.2-0.3-0.4-0.6-0.2-0.4-0.4-0.7-0.1-0.4-0.2-0.8-0.2-0.4-0.2-0.8-0.1-0.3-0.1-0.7 0-0.4 0.1-0.8 0-0.4 0.1-0.8 0.1-0.4 0.3-0.8 0.1-0.4 0.3-0.7 0.2-0.4 0.5-0.7 0.2-0.3 0.5-0.6 0.3-0.3 0.6-0.5 0.3-0.3 0.6-0.5 0.4-0.2 0.8-0.3 0.3-0.2 0.7-0.3 0.4-0.1 0.8-0.2 0.4 0 0.8 0 0.3 0 0.6 0 0.3 0.1 0.6 0.1 0.3 0.1 0.6 0.2 0.2 0.1 0.5 0.2 0.3 0.1 0.5 0.2 0.3 0.2 0.5 0.3 0.2 0.2 0.5 0.4 0.2 0.2 0.4 0.4 0.2 0.2 0.4 0.4 0.1 0.2 0.3 0.5 0.2 0.2 0.3 0.5 0.1 0.2 0.2 0.5 0.1 0.3 0.2 0.6 0.1 0.2 0.2 0.5 0 0.3 0.1 0.6 0 0.3 0 0.6 0 0.2 0 0.3-0.1 0.2-0.1 0.4 0 0.1 0 0.3 0 0.1-0.1 0.3zm-8.9-2.4h6.3q0-0.2-0.1-0.4-0.1-0.1-0.2-0.3-0.1-0.1-0.2-0.2-0.1-0.2-0.2-0.3-0.1-0.1-0.2-0.2-0.2-0.1-0.3-0.2-0.1-0.1-0.3-0.2-0.1-0.1-0.3-0.2-0.1 0-0.3-0.1-0.2 0-0.3-0.1-0.2 0-0.4 0-0.1 0-0.3 0-0.3 0-0.5 0-0.3 0.1-0.5 0.1-0.3 0.1-0.5 0.2-0.3 0.1-0.5 0.3-0.2 0.1-0.4 0.3-0.2 0.2-0.3 0.4-0.2 0.2-0.3 0.4-0.1 0.2-0.2 0.5z"/>
			<path id="Path_48" class="s0" d="m119.7 25.2v-11.4h2.5v1q0.1-0.2 0.2-0.3 0.1-0.2 0.3-0.3 0.1-0.1 0.2-0.3 0.2-0.1 0.4-0.2 0.1-0.1 0.3-0.1 0.2-0.1 0.3-0.1 0.2-0.1 0.4-0.1 0.2 0 0.4 0h0.2v2.7q-0.2-0.1-0.5 0-0.2 0-0.4 0.1-0.2 0-0.4 0.1-0.2 0.2-0.4 0.3-0.1 0.1-0.2 0.1 0 0.1-0.1 0.2-0.1 0.1-0.1 0.2-0.1 0.1-0.1 0.1-0.1 0.1-0.1 0.2 0 0.1-0.1 0.2 0 0.1 0 0.2 0 0.1 0 0.2-0.1 0.4-0.1 1v6.2z"/>
		</g>
		<g id="Group_6">
			<path id="Path_49" class="s0" d="m134.9 17.9v-2.6h0.2q0.2 0 0.4 0 0.2 0 0.4-0.1 0.2 0 0.4-0.1 0.2-0.1 0.4-0.2 0.2-0.1 0.3-0.2 0.1-0.1 0.2-0.3 0.1-0.2 0.1-0.3 0-0.2 0-0.4 0-0.1 0-0.3 0-0.1-0.1-0.2 0-0.2-0.1-0.3-0.1-0.1-0.2-0.2-0.1-0.1-0.2-0.2-0.1 0-0.3-0.1-0.1 0-0.2 0-0.2-0.1-0.3-0.1-0.1 0-0.3 0.1-0.1 0-0.2 0-0.1 0.1-0.2 0.1-0.1 0.1-0.2 0.2-0.1 0.1-0.2 0.2 0 0.1-0.1 0.2 0 0.2 0 0.3-0.1 0.1-0.1 0.2h-2.7q0-0.2 0-0.5 0.1-0.2 0.1-0.5 0.1-0.2 0.2-0.5 0.1-0.2 0.2-0.4 0.2-0.3 0.3-0.5 0.2-0.2 0.4-0.4 0.2-0.2 0.4-0.3 0.2-0.2 0.4-0.3 0.2-0.1 0.5-0.2 0.2-0.1 0.5-0.2 0.2-0.1 0.5-0.1 0.2 0 0.5 0 0.2 0 0.4 0 0.2 0 0.4 0 0.2 0.1 0.4 0.1 0.2 0.1 0.4 0.2 0.2 0 0.3 0.1 0.2 0.1 0.4 0.2 0.2 0.1 0.3 0.3 0.2 0.1 0.3 0.2 0.2 0.2 0.3 0.3 0.1 0.2 0.2 0.3 0.1 0.2 0.2 0.4 0.1 0.1 0.2 0.3 0.1 0.2 0.2 0.4 0 0.2 0.1 0.4 0 0.2 0 0.4 0.1 0.2 0.1 0.4 0 0.2-0.1 0.4 0 0.2 0 0.4-0.1 0.2-0.1 0.4-0.1 0.2-0.2 0.4 0 0.2-0.1 0.3-0.2 0.2-0.3 0.3-0.1 0.2-0.3 0.3-0.1 0.1-0.3 0.2 0.2 0.1 0.4 0.2 0.2 0.1 0.4 0.2 0.1 0.1 0.3 0.3 0.1 0.1 0.3 0.2 0.1 0.2 0.2 0.4 0.2 0.1 0.3 0.3 0.1 0.2 0.2 0.4 0 0.2 0.1 0.4 0.1 0.2 0.1 0.4 0.1 0.2 0.1 0.4 0 0.2 0.1 0.5 0 0.2 0 0.4 0 0.3-0.1 0.7 0 0.3-0.1 0.7-0.1 0.3-0.2 0.6-0.2 0.3-0.3 0.6-0.2 0.3-0.4 0.6-0.2 0.2-0.5 0.4-0.2 0.3-0.5 0.5-0.3 0.2-0.6 0.3-0.3 0.2-0.6 0.3-0.3 0.1-0.7 0.2-0.3 0.1-0.6 0.1-0.4 0.1-0.7 0.1-0.4 0-0.7-0.1-0.3 0-0.6-0.1-0.3-0.1-0.6-0.2-0.3-0.1-0.6-0.3-0.3-0.2-0.6-0.3-0.2-0.2-0.5-0.5-0.2-0.2-0.4-0.4-0.2-0.3-0.4-0.6-0.1-0.2-0.3-0.5-0.1-0.3-0.2-0.7-0.1-0.3-0.2-0.6 0-0.3 0-0.6h2.7q0.1 0.1 0.1 0.3 0 0.1 0.1 0.3 0 0.1 0.1 0.2 0 0.2 0.1 0.3 0.1 0.1 0.2 0.2 0.1 0.1 0.2 0.2 0.1 0.2 0.3 0.2 0.1 0.1 0.2 0.2 0.2 0.1 0.3 0.1 0.1 0.1 0.3 0.1 0.2 0.1 0.3 0.1 0.2 0 0.3 0 0.3 0 0.5-0.1 0.2 0 0.4-0.1 0.3-0.1 0.5-0.2 0.2-0.1 0.3-0.3 0.2-0.2 0.3-0.4 0.2-0.2 0.2-0.4 0.1-0.2 0.2-0.4 0-0.3 0-0.5 0-0.2 0-0.3 0-0.2-0.1-0.3 0-0.2 0-0.4-0.1-0.1-0.2-0.2 0-0.2-0.1-0.3-0.1-0.1-0.2-0.2-0.1-0.1-0.2-0.2-0.1-0.1-0.3-0.2-0.1-0.1-0.2-0.2-0.1 0-0.2-0.1-0.1 0-0.2-0.1-0.2 0-0.3 0-0.1 0-0.3-0.1-0.1 0-0.3 0-0.1 0-0.3 0-0.1 0-0.3 0z"/>
			<path id="Path_50" fill-rule="evenodd" class="s0" d="m147.7 9.9h3.3l-3.4 5.2c0.1 0 1 0 1.2 0q0.2 0 0.4 0.1 0.2 0 0.4 0.1 0.2 0.1 0.4 0.1 0.2 0.1 0.4 0.3 0.2 0.1 0.4 0.2 0.2 0.1 0.4 0.3 0.1 0.1 0.3 0.3 0.3 0.4 0.6 0.8 0.2 0.4 0.4 0.9 0.2 0.5 0.3 0.9 0 0.5 0 1 0 0.4 0 0.7-0.1 0.4-0.1 0.7-0.1 0.4-0.3 0.7-0.1 0.3-0.3 0.6-0.1 0.3-0.3 0.6-0.3 0.3-0.5 0.6-0.2 0.2-0.5 0.4-0.3 0.2-0.6 0.4-0.3 0.2-0.6 0.4-0.3 0.1-0.7 0.2-0.3 0.1-0.6 0.1-0.4 0.1-0.7 0.1-0.3 0-0.6-0.1-0.3 0-0.5 0-0.3-0.1-0.5-0.2-0.3 0-0.5-0.1-0.3-0.1-0.5-0.3-0.2-0.1-0.4-0.2-0.3-0.2-0.5-0.4-0.1-0.1-0.3-0.3-0.2-0.2-0.4-0.4-0.1-0.2-0.3-0.4-0.1-0.3-0.2-0.5-0.2-0.2-0.3-0.5-0.1-0.2-0.1-0.5-0.1-0.2-0.2-0.5 0-0.3 0-0.5-0.1-0.3-0.1-0.6 0.1-0.5 0.1-0.9 0.1-0.5 0.2-0.9 0.2-0.5 0.4-0.9 0.2-0.4 0.5-0.8zm-0.2 7.6q-0.2 0-0.4 0.1-0.1 0-0.3 0-0.2 0.1-0.3 0.1-0.2 0.1-0.3 0.2-0.2 0.1-0.3 0.2-0.1 0.1-0.2 0.2-0.1 0.1-0.2 0.2-0.1 0.2-0.2 0.3-0.1 0.1-0.2 0.3 0 0.2-0.1 0.3 0 0.2 0 0.4-0.1 0.1-0.1 0.3 0 0.2 0.1 0.4 0 0.1 0 0.3 0.1 0.2 0.1 0.4 0.1 0.1 0.2 0.3 0 0.1 0.1 0.3 0.1 0.1 0.2 0.2 0.2 0.2 0.3 0.3 0.1 0.1 0.3 0.2 0.1 0.1 0.3 0.1 0.1 0.1 0.3 0.1 0.2 0.1 0.3 0.1 0.2 0 0.4 0 0.1 0 0.3 0 0.2 0 0.3-0.1 0.2 0 0.4-0.1 0.1 0 0.3-0.1 0.1-0.1 0.2-0.2 0.2-0.1 0.3-0.2 0.1-0.1 0.2-0.3 0.1-0.1 0.2-0.3 0.1-0.1 0.1-0.3 0.1-0.1 0.1-0.3 0.1-0.1 0.1-0.3 0-0.2 0-0.4 0-0.1 0-0.3 0-0.2-0.1-0.3 0-0.2-0.1-0.4-0.1-0.1-0.1-0.3-0.1-0.2-0.2-0.3-0.1-0.1-0.2-0.3-0.2-0.1-0.3-0.2-0.1-0.1-0.3-0.2-0.1-0.1-0.3-0.2-0.1 0-0.3-0.1-0.1 0-0.3 0-0.2-0.1-0.3-0.1z"/>
			<path id="Path_51" fill-rule="evenodd" class="s0" d="m164 15c0 0.2 0 5.6 0 5.7q0 0.3 0 0.5-0.1 0.3-0.1 0.6-0.1 0.2-0.1 0.5-0.1 0.2-0.2 0.4-0.1 0.2-0.2 0.4-0.1 0.2-0.3 0.4-0.1 0.2-0.3 0.4-0.1 0.2-0.3 0.4-0.2 0.1-0.5 0.3-0.2 0.2-0.4 0.3-0.2 0.1-0.5 0.2-0.2 0.1-0.5 0.2-0.2 0.1-0.5 0.2-0.3 0-0.5 0-0.3 0.1-0.6 0.1-0.5 0-1-0.1-0.5-0.1-1-0.3-0.5-0.2-1-0.5-0.4-0.3-0.8-0.6-0.1-0.1-0.2-0.3-0.2-0.1-0.3-0.3-0.1-0.1-0.2-0.2-0.1-0.2-0.2-0.4 0-0.1-0.1-0.3-0.1-0.1-0.1-0.3-0.1-0.2-0.1-0.4-0.1-0.1-0.1-0.3 0-0.2 0-0.4-0.1-0.2-0.1-0.4 0-0.2 0-0.3 0-0.2 0-0.4c0-0.3 0-5.8 0-6.1q0.1-0.5 0.2-0.9 0.2-0.5 0.4-0.9 0.3-0.5 0.6-0.9 0.1-0.1 0.2-0.2 0.2-0.2 0.3-0.3 0.1-0.1 0.3-0.2 0.1-0.1 0.3-0.2 0.1-0.1 0.3-0.2 0.2 0 0.3-0.1 0.2-0.1 0.4-0.1 0.2-0.1 0.3-0.2 0.2 0 0.4 0 0.2-0.1 0.4-0.1 0.1 0 0.3 0 0.2 0 0.4-0.1 0.3 0 0.5 0.1 0.3 0 0.5 0 0.3 0.1 0.5 0.2 0.3 0 0.5 0.1 0.3 0.1 0.5 0.2 0.2 0.1 0.4 0.3 0.3 0.1 0.5 0.3 0.1 0.1 0.3 0.3 0.2 0.2 0.4 0.4 0.1 0.2 0.3 0.4 0.1 0.2 0.2 0.5 0.1 0.2 0.2 0.4 0.1 0.3 0.2 0.6 0 0.2 0.1 0.5 0 0.3 0 0.6 0 0.2 0 0.5zm-7.4 0.1v4.9q-0.1 0.3 0 0.5 0 0.3 0.1 0.6 0 0.3 0.1 0.5 0.1 0.3 0.3 0.5 0.1 0.1 0.2 0.2 0.1 0 0.2 0.1 0.1 0.1 0.2 0.2 0.1 0 0.2 0.1 0.1 0 0.3 0.1 0.1 0 0.2 0 0.1 0.1 0.2 0.1 0.2 0 0.3 0 0.1 0 0.3 0 0.1 0 0.2-0.1 0.2 0 0.3 0 0.1-0.1 0.2-0.1 0.2-0.1 0.3-0.2 0.1 0 0.2-0.1 0.1-0.1 0.2-0.2 0.1-0.1 0.2-0.2 0.1-0.2 0.2-0.4 0.1-0.3 0.2-0.5 0.1-0.3 0.1-0.5 0-0.3 0-0.6c0-0.2 0-5.4 0-5.6q-0.1-0.2-0.2-0.4 0-0.3-0.2-0.5-0.1-0.2-0.2-0.4-0.2-0.2-0.4-0.4-0.2-0.1-0.4-0.2-0.3-0.1-0.5-0.1-0.3-0.1-0.5-0.1-0.1 0-0.3 0.1-0.1 0-0.2 0-0.1 0-0.3 0.1-0.1 0-0.2 0.1-0.1 0-0.2 0.1-0.2 0-0.3 0.1-0.1 0.1-0.2 0.2 0 0.1-0.1 0.2-0.1 0.1-0.2 0.2 0 0.1-0.1 0.2 0 0.1-0.1 0.2 0 0.1 0 0.2-0.1 0.2-0.1 0.3 0 0.1 0 0.2 0 0.2 0 0.3 0 0.1 0 0.3z"/>
		</g>
		<path id="Path_52" class="s1" d="m29.4 28.9q-1.1 1.1-2.4 2.1-1.3 0.9-2.8 1.6-1.5 0.7-3 1.1-1.6 0.3-3.2 0.4h-0.3q-0.2 0-0.4 0.1h-0.3q-0.2 0-0.4-0.1h-0.3q-0.5 0-0.9 0c-4.3-0.5-8.3-2.5-11.2-5.8-2.8-3.3-4.3-7.6-4.1-11.9 0.1-4.4 2-8.5 5.1-11.5 3.1-3.1 7.2-4.8 11.6-4.9q0.2 0 0.4 0 0.1 0 0.3 0 1.4 0 2.9 0.3 1.4 0.3 2.8 0.8 1.4 0.6 2.7 1.3 1.2 0.8 2.3 1.8l-2.5 2.8q-0.2 0.4-0.6 0.6-0.3 0.2-0.8 0.2-0.4 0.1-0.8 0-0.4-0.1-0.7-0.3-0.6-0.3-1.2-0.6-0.7-0.3-1.4-0.5-0.6-0.2-1.3-0.3-0.7-0.1-1.4-0.2-0.2 0-0.3 0-0.3 0-0.5 0-0.7 0.1-1.5 0.2-0.7 0.1-1.4 0.3-0.7 0.3-1.4 0.6-0.7 0.3-1.3 0.7-0.1 0.1-0.2 0.1c-2 1.3-3.5 3.2-4.3 5.4-0.8 2.2-0.9 4.6-0.3 6.9 0.7 2.3 2 4.3 3.8 5.7 1.9 1.5 4.1 2.3 6.5 2.4q0.3 0 0.6 0 0.2 0 0.5 0 0.5 0 1-0.1 0.5-0.1 0.9-0.2 0.5-0.1 1-0.3 0.5-0.1 0.9-0.3 0.3-0.1 0.5-0.2 0.3-0.2 0.5-0.3 0.3-0.1 0.5-0.3 0.2-0.1 0.4-0.3 0.1 0 0.1-0.1 0.1 0 0.2 0 0 0 0.1-0.1 0 0 0.1 0 0.3-0.2 0.8-0.3 0.4 0 0.8 0.1 0.4 0 0.8 0.2 0.3 0.2 0.6 0.5z"/>
		<path id="Path_53" class="s0" d="m23 17.1c0 2.3-1.4 4.3-3.5 5.2-2.1 0.9-4.5 0.4-6.1-1.2-1.6-1.6-2.1-4.1-1.3-6.2 0.9-2.1 3-3.5 5.3-3.5q1.1 0 2.1 0.5 1.1 0.4 1.9 1.2 0.7 0.8 1.2 1.8 0.4 1.1 0.4 2.2z"/>
		<path id="Path_54" class="s0" d="m29.4 28.9q-1.1 1.1-2.4 2.1-1.3 0.9-2.8 1.6-1.5 0.7-3 1.1-1.6 0.3-3.2 0.4h-0.3q-0.2 0-0.4 0.1h-0.3q-0.2 0-0.4-0.1h-0.3q-1.6-0.1-3.2-0.4-1.6-0.4-3.1-1.1-1.4-0.7-2.7-1.6-1.4-1-2.5-2.1l2.5-2.4q0.3-0.3 0.7-0.5 0.4-0.2 0.8-0.2 0.4-0.1 0.8-0.1 0.4 0.1 0.8 0.3 0 0 0.1 0 0 0.1 0.1 0.1 0.1 0 0.1 0.1 0.1 0 0.1 0 0.2 0.2 0.5 0.3 0.2 0.2 0.4 0.3 0.3 0.1 0.5 0.3 0.3 0.1 0.5 0.2 0.5 0.2 0.9 0.3 0.5 0.2 1 0.3 0.5 0.1 1 0.2 0.5 0.1 1 0.1 0.3 0 0.6 0 0.2 0 0.5 0 0.8 0 1.6-0.2 0.9-0.2 1.6-0.4 0.8-0.3 1.6-0.7 0.7-0.4 1.4-0.9 0.3-0.2 0.8-0.3 0.4 0 0.8 0.1 0.4 0 0.8 0.2 0.3 0.2 0.6 0.5z"/>
	</g>
</svg>