<svg xmlns="http://www.w3.org/2000/svg" version="1.1" xmlns:xlink="http://www.w3.org/1999/xlink" xmlns:svgjs="http://svgjs.com/svgjs" width="512" height="512" x="0" y="0" viewBox="0 0 135.47 135.47" style="enable-background:new 0 0 512 512" xml:space="preserve" class=""><g><g stroke-linecap="round" transform="translate(1083.7 541.79)"><path d="m-1015.9-531.45c-6.9 0-12.6 5.71-12.6 12.62v12.7h-33.8c-6.9 0-12.4 5.58-12.4 12.41v64.66c0 6.8 5.5 12.39 12.4 12.39h92.78c6.8 0 12.38-5.59 12.38-12.39v-64.66c0-6.83-5.58-12.41-12.38-12.41h-33.88v-12.7c0-6.91-5.6-12.62-12.5-12.62zm0 6.35c3.4 0 6.2 2.72 6.2 6.27v27.62h-12.4v-27.62c0-3.55 2.7-6.27 6.2-6.27zm-46.4 25.05h33.8v12.02a3.1753 3.1753 0 0 0 3.2 3.17h18.7a3.1753 3.1753 0 0 0 3.2-3.17v-12.02h33.88c3.54 0 6.32 2.78 6.32 6.33v64.66c0 3.55-2.8 6.33-6.32 6.33h-92.78c-3.6 0-6.4-2.78-6.4-6.33v-64.66c0-3.55 2.8-6.33 6.4-6.33z" stroke-linejoin="round" paint-order="fill markers stroke" fill="#bcbccb" data-original="#000000" class=""></path><path d="m-1042.2-482.35c-8 0-14.7 6.65-14.7 14.77 0 4.55 2.1 8.62 5.4 11.35-6.2 3.33-10.4 9.9-10.4 17.36v1c.1 1.62 1.4 2.89 3.1 2.89h33.4c1.6 0 2.9-1.27 3-2.86v-1.03c0-7.46-4.2-14.03-10.3-17.36 3.2-2.73 5.3-6.8 5.3-11.35 0-8.12-6.6-14.77-14.8-14.77zm0 6.09c4.9 0 8.7 3.86 8.7 8.68 0 4.81-3.8 8.68-8.7 8.68-4.8 0-8.6-3.87-8.6-8.68 0-4.82 3.8-8.68 8.6-8.68zm0 23.71c6.9 0 12.5 4.97 13.5 11.51h-26.9c1-6.54 6.6-11.51 13.4-11.51z" stroke-linejoin="round" paint-order="fill markers stroke" fill="#bcbccb" data-original="#000000" class=""></path><path d="m-1003.6-475.91a3.175 3.175 0 0 0 -3.1 3.17 3.175 3.175 0 0 0 3.1 3.18h30.43a3.175 3.175 0 0 0 3.18-3.18 3.175 3.175 0 0 0 -3.18-3.17z" fill="#bcbccb" data-original="#000000" class=""></path><path d="m-1016.4-461.41a3.175 3.175 0 0 0 -3.2 3.17 3.175 3.175 0 0 0 3.2 3.18h43.23a3.175 3.175 0 0 0 3.18-3.18 3.175 3.175 0 0 0 -3.18-3.17z" fill="#bcbccb" data-original="#000000" class=""></path><path d="m-1005.2-447.75a3.175 3.175 0 0 0 -3.2 3.18 3.175 3.175 0 0 0 3.2 3.17h32.03a3.175 3.175 0 0 0 3.18-3.17 3.175 3.175 0 0 0 -3.18-3.18z" fill="#bcbccb" data-original="#000000" class=""></path></g></g></svg>