<svg xmlns="http://www.w3.org/2000/svg" width="12.2" height="18.794" viewBox="0 0 12.2 18.794">
  <g id="noun-fiber-optic-4600207" transform="translate(-231.819 -96.957)">
    <path id="Path_3003" data-name="Path 3003" d="M242.064,100.261a1.855,1.855,0,0,0-1.4,3.075,4.617,4.617,0,0,0-1.261,1.549,7.428,7.428,0,0,0-.658,3.147h-.472v-7.3a1.856,1.856,0,1,0-.711,0v7.3h-.472a7.427,7.427,0,0,0-.658-3.147,4.617,4.617,0,0,0-1.26-1.549,1.853,1.853,0,1,0-.581.447c.85.659,1.717,1.63,1.788,4.249h-.652a1.107,1.107,0,0,0-1.106,1.106v6.156a.356.356,0,0,0,.711,0v-6.156a.4.4,0,0,1,.394-.394H240.4a.4.4,0,0,1,.394.394v6.156a.356.356,0,0,0,.711,0v-6.156a1.107,1.107,0,0,0-1.106-1.106h-.937c.072-2.62.938-3.59,1.788-4.249a1.856,1.856,0,1,0,.817-3.522Zm-8.289,3a1.144,1.144,0,1,1,1.144-1.144A1.146,1.146,0,0,1,233.775,103.261Zm3-4.349a1.144,1.144,0,1,1,1.144,1.144A1.146,1.146,0,0,1,236.775,98.913Zm5.289,4.349a1.144,1.144,0,1,1,1.144-1.144A1.146,1.146,0,0,1,242.063,103.261Z" transform="translate(0)" fill="#3bf" stroke="#3bf" stroke-linecap="round" stroke-width="0.2"/>
  </g>
</svg>
