<svg id="icon_process" xmlns="http://www.w3.org/2000/svg" xmlns:xlink="http://www.w3.org/1999/xlink" width="20.871" height="19" viewBox="0 0 20.871 19">
  <defs>
    <linearGradient id="linear-gradient" x1="0.5" x2="0.5" y2="1" gradientUnits="objectBoundingBox">
      <stop offset="0" stop-color="#00bec1"/>
      <stop offset="0.537" stop-color="#35dbd8"/>
      <stop offset="1" stop-color="#05fff4"/>
    </linearGradient>
  </defs>
  <path id="icon_process-2" data-name="icon_process" d="M16.858,16.057A9.327,9.327,0,0,1,10.3,18.733a8.993,8.993,0,0,1-6.555-2.676,8.814,8.814,0,0,1-2.542-5.084l2.676-.4a7.235,7.235,0,0,0,1.871,3.614,6.706,6.706,0,0,0,9.367,0l-2.81-2.81,8.562-.938L19.8,19ZM.936,0,3.881,2.943a9.45,9.45,0,0,1,13.245,0,8.826,8.826,0,0,1,2.543,5.084l-2.676.4a7.226,7.226,0,0,0-1.874-3.614,6.706,6.706,0,0,0-9.367,0L8.564,7.626,0,8.564Z" fill="url(#linear-gradient)"/>
</svg>
