<svg xmlns="http://www.w3.org/2000/svg" xmlns:xlink="http://www.w3.org/1999/xlink" width="23" height="23" viewBox="0 0 23 23">
  <defs>
    <linearGradient id="linear-gradient" x1="0.5" x2="0.5" y2="1" gradientUnits="objectBoundingBox">
      <stop offset="0" stop-color="#ff761a"/>
      <stop offset="0.258" stop-color="#ff7a1b"/>
      <stop offset="0.525" stop-color="#ff8620"/>
      <stop offset="0.796" stop-color="#ff9b29"/>
      <stop offset="1" stop-color="#ffc107"/>
    </linearGradient>
    <clipPath id="clip-path">
      <rect id="Rectangle_931" data-name="Rectangle 931" width="23" height="23" transform="translate(0 0)" fill="url(#linear-gradient)"/>
    </clipPath>
  </defs>
  <g id="Group_573" data-name="Group 573" transform="translate(0)">
    <g id="Mask_Group_573" data-name="Mask Group 573" clip-path="url(#clip-path)">
      <path id="Path_2988" data-name="Path 2988" d="M35.851,98.926H52.976a.857.857,0,0,0,.856-.856V86.792a2.579,2.579,0,0,1-.569-.285l-8.85-5.9-8.85,5.9a2.546,2.546,0,0,1-.569.285V98.069a.857.857,0,0,0,.856.856Zm7.706-4.281a.856.856,0,1,1,.856.856.857.857,0,0,1-.856-.856m-.96-1.816a2.569,2.569,0,0,1,3.632,0,.857.857,0,1,0,1.212-1.212,4.283,4.283,0,0,0-6.054,0A.856.856,0,1,0,42.6,92.829Zm-2.422-2.422a6,6,0,0,1,8.477,0A.856.856,0,1,0,49.863,89.2,7.918,7.918,0,0,0,45.983,87.1,7.576,7.576,0,0,0,38.965,89.2a.856.856,0,0,0,1.211,1.211Z" transform="translate(-32.544 -76.667)" fill-rule="evenodd" fill="url(#linear-gradient)"/>
      <path id="Path_2989" data-name="Path 2989" d="M18.837,4.964,11.606.143a.856.856,0,0,0-.95,0L.381,6.993a.856.856,0,1,0,.95,1.425L10.655,2.2a.856.856,0,0,1,.95,0h0L20.93,8.418a.856.856,0,0,0,.95-1.425l-1.331-.888" transform="translate(0.739 -0.002)" fill-rule="evenodd" fill="url(#linear-gradient)"/>
    </g>
  </g>
</svg>
