<svg fill="none" height="80" viewBox="0 0 80 80" width="80" xmlns="http://www.w3.org/2000/svg" xmlns:xlink="http://www.w3.org/1999/xlink"><radialGradient id="a" cx="34.5751" cy="27.9796" gradientUnits="userSpaceOnUse" r="36.7656"><stop offset="0" stop-color="#ffe030"/><stop offset="1" stop-color="#ffb92e"/></radialGradient><radialGradient id="b" cx="34.5751" cy="27.9796" gradientUnits="userSpaceOnUse" r="28.9251"><stop offset="0" stop-color="#ffea5f"/><stop offset="1" stop-color="#ffbc47" stop-opacity="0"/></radialGradient><linearGradient id="c"><stop offset="0" stop-color="#ff4c00"/><stop offset=".1542" stop-color="#ff4c00"/><stop offset=".1795" stop-color="#ff4c00"/><stop offset=".3996" stop-color="#fb4c0b" stop-opacity=".7318"/><stop offset=".7799" stop-color="#ef4b27" stop-opacity=".2683"/><stop offset="1" stop-color="#e74a3a" stop-opacity="0"/></linearGradient><radialGradient id="d" cx="0" cy="0" gradientTransform="matrix(12.80401876 -.61956816 .49023167 10.13114613 23.9677 47.9123)" gradientUnits="userSpaceOnUse" r="1" xlink:href="#c"/><radialGradient id="e" cx="0" cy="0" gradientTransform="matrix(-12.804022 -.61950111 .49017863 -10.1311487 57.1649 47.9123)" gradientUnits="userSpaceOnUse" r="1" xlink:href="#c"/><linearGradient id="f"><stop offset=".00132565" stop-color="#3c2200"/><stop offset="1" stop-color="#512d00"/></linearGradient><linearGradient id="g" gradientUnits="userSpaceOnUse" x1="40.571" x2="40.571" xlink:href="#f" y1="49.1793" y2="56.3473"/><linearGradient id="h"><stop offset=".00132565" stop-color="#3c2200"/><stop offset="1" stop-color="#7a4400"/></linearGradient><linearGradient id="i" gradientUnits="userSpaceOnUse" x1="27.2789" x2="27.706" xlink:href="#h" y1="30.3814" y2="27.1987"/><linearGradient id="j" gradientUnits="userSpaceOnUse" x1="53.8617" x2="53.4346" xlink:href="#h" y1="30.3818" y2="27.1991"/><linearGradient id="k"><stop offset=".00132565" stop-color="#7a4400"/><stop offset="1" stop-color="#643800"/></linearGradient><radialGradient id="l" cx="0" cy="0" gradientTransform="matrix(5.3942188 .9492826 -.45801922 2.60265584 52.7046 39.4608)" gradientUnits="userSpaceOnUse" r="1" xlink:href="#k"/><linearGradient id="m" gradientUnits="userSpaceOnUse" x1="53.5018" x2="52.9084" xlink:href="#f" y1="35.0519" y2="38.5404"/><radialGradient id="n" cx="0" cy="0" gradientTransform="matrix(-5.39421549 .94930143 -.45802831 -2.60265424 28.5142 39.3769)" gradientUnits="userSpaceOnUse" r="1" xlink:href="#k"/><linearGradient id="o" gradientUnits="userSpaceOnUse" x1="27.592" x2="28.1854" xlink:href="#f" y1="35.0231" y2="38.5116"/><radialGradient id="p" cx="0" cy="0" gradientTransform="matrix(-12.804022 -.61950111 .49017863 -10.1311487 59.8315 18.7684)" gradientUnits="userSpaceOnUse" r="1" xlink:href="#c"/><radialGradient id="q" cx="0" cy="0" gradientTransform="matrix(-12.804022 -.61950111 .49017863 -10.1311487 63.8314 66.4527)" gradientUnits="userSpaceOnUse" r="1" xlink:href="#c"/><radialGradient id="r" cx="0" cy="0" gradientTransform="matrix(-12.804022 -.61950111 .49017863 -10.1311487 15.9284 59.532)" gradientUnits="userSpaceOnUse" r="1" xlink:href="#c"/><linearGradient id="s"><stop offset=".2479" stop-color="#f00"/><stop offset=".8639" stop-color="#c20000"/></linearGradient><radialGradient id="t" cx="0" cy="0" gradientTransform="matrix(13.44891475 -7.58054823 6.01334248 10.66848042 53.766 12.8113)" gradientUnits="userSpaceOnUse" r="1" xlink:href="#s"/><linearGradient id="u"><stop offset=".2479" stop-color="#f00"/><stop offset="1" stop-color="#c20000"/></linearGradient><radialGradient id="v" cx="0" cy="0" gradientTransform="matrix(11.57908856 -6.52661132 5.17727354 9.18518139 54.1477 11.8643)" gradientUnits="userSpaceOnUse" r="1" xlink:href="#u"/><linearGradient id="w"><stop offset="0" stop-color="#fff" stop-opacity=".25"/><stop offset="1" stop-color="#fff" stop-opacity="0"/></linearGradient><radialGradient id="x" cx="0" cy="0" gradientTransform="matrix(13.44891475 -7.58054823 6.01334248 10.66848042 53.766 12.8113)" gradientUnits="userSpaceOnUse" r="1" xlink:href="#w"/><linearGradient id="y"><stop offset="0" stop-color="#bd2719" stop-opacity=".25"/><stop offset="1" stop-color="#bd2719" stop-opacity="0"/></linearGradient><radialGradient id="z" cx="0" cy="0" gradientTransform="matrix(10.10312309 -4.99239685 2.46695543 4.99238243 59.3158 18.0497)" gradientUnits="userSpaceOnUse" r="1" xlink:href="#y"/><linearGradient id="A"><stop offset="0" stop-color="#fff"/><stop offset="1" stop-color="#fff" stop-opacity="0"/></linearGradient><radialGradient id="B" cx="0" cy="0" gradientTransform="matrix(3.72256588 -1.48069653 .91978419 2.31239633 51.5697 11.5661)" gradientUnits="userSpaceOnUse" r="1" xlink:href="#A"/><radialGradient id="C" cx="0" cy="0" gradientTransform="matrix(2.51228737 -2.16575694 1.34542493 1.56069871 59.3861 11.199)" gradientUnits="userSpaceOnUse" r="1" xlink:href="#A"/><linearGradient id="D"><stop offset="0" stop-color="#860805"/><stop offset="1" stop-color="#bd2719" stop-opacity="0"/></linearGradient><linearGradient id="E" gradientUnits="userSpaceOnUse" x1="58.6253" x2="60.5369" xlink:href="#D" y1="32.7754" y2="6.99997"/><radialGradient id="F" cx="0" cy="0" gradientTransform="matrix(13.44891475 -7.58054823 6.01334248 10.66848042 15.2343 51.3531)" gradientUnits="userSpaceOnUse" r="1" xlink:href="#s"/><radialGradient id="G" cx="0" cy="0" gradientTransform="matrix(11.57908856 -6.52661132 5.17727354 9.18518139 15.616 50.4061)" gradientUnits="userSpaceOnUse" r="1" xlink:href="#u"/><radialGradient id="H" cx="0" cy="0" gradientTransform="matrix(13.44891475 -7.58054823 6.01334248 10.66848042 15.2343 51.3531)" gradientUnits="userSpaceOnUse" r="1" xlink:href="#w"/><radialGradient id="I" cx="0" cy="0" gradientTransform="matrix(10.10312309 -4.99239685 2.46695543 4.99238243 20.7848 56.5941)" gradientUnits="userSpaceOnUse" r="1" xlink:href="#y"/><radialGradient id="J" cx="0" cy="0" gradientTransform="matrix(3.72256588 -1.48069653 .91978419 2.31239633 13.0353 50.1074)" gradientUnits="userSpaceOnUse" r="1" xlink:href="#A"/><radialGradient id="K" cx="0" cy="0" gradientTransform="matrix(2.51229493 -2.16574817 1.34541948 1.56070341 20.8534 49.7442)" gradientUnits="userSpaceOnUse" r="1" xlink:href="#A"/><linearGradient id="L" gradientUnits="userSpaceOnUse" x1="20.0926" x2="22.0041" xlink:href="#D" y1="71.3187" y2="45.5433"/><radialGradient id="M" cx="0" cy="0" gradientTransform="matrix(13.44891475 -7.58054823 6.01334248 10.66848042 59.1195 59.1648)" gradientUnits="userSpaceOnUse" r="1" xlink:href="#s"/><radialGradient id="N" cx="0" cy="0" gradientTransform="matrix(11.57908856 -6.52661132 5.17727354 9.18518139 59.5012 58.2178)" gradientUnits="userSpaceOnUse" r="1" xlink:href="#u"/><radialGradient id="O" cx="0" cy="0" gradientTransform="matrix(13.44891475 -7.58054823 6.01334248 10.66848042 59.1195 59.1648)" gradientUnits="userSpaceOnUse" r="1" xlink:href="#w"/><radialGradient id="P" cx="0" cy="0" gradientTransform="matrix(10.10312309 -4.99239685 2.46695543 4.99238243 64.6702 64.403)" gradientUnits="userSpaceOnUse" r="1" xlink:href="#y"/><radialGradient id="Q" cx="0" cy="0" gradientTransform="matrix(3.72257775 -1.48069373 .91978015 2.31239793 56.9227 57.9182)" gradientUnits="userSpaceOnUse" r="1" xlink:href="#A"/><radialGradient id="R" cx="0" cy="0" gradientTransform="matrix(2.51228737 -2.16575694 1.34542493 1.56069871 64.7388 57.5542)" gradientUnits="userSpaceOnUse" r="1" xlink:href="#A"/><linearGradient id="S" gradientUnits="userSpaceOnUse" x1="63.9792" x2="65.8908" xlink:href="#D" y1="79.1283" y2="53.3529"/><path d="m40.5714 70.8003c16.8315 0 30.4762-13.6447 30.4762-30.4762 0-16.8316-13.6447-30.47623-30.4762-30.47623s-30.4762 13.64463-30.4762 30.47623c0 16.8315 13.6447 30.4762 30.4762 30.4762z" fill="url(#a)"/><path d="m40.5714 70.8003c16.8315 0 30.4762-13.6447 30.4762-30.4762 0-16.8316-13.6447-30.47623-30.4762-30.47623s-30.4762 13.64463-30.4762 30.47623c0 16.8315 13.6447 30.4762 30.4762 30.4762z" fill="url(#b)" opacity=".5"/><path d="m40.5714 70.8003c16.8315 0 30.4762-13.6447 30.4762-30.4762 0-16.8316-13.6447-30.47623-30.4762-30.47623s-30.4762 13.64463-30.4762 30.47623c0 16.8315 13.6447 30.4762 30.4762 30.4762z" fill="url(#d)" opacity=".5"/><path d="m40.5714 70.8003c16.8315 0 30.4762-13.6447 30.4762-30.4762 0-16.8316-13.6447-30.47623-30.4762-30.47623s-30.4762 13.64463-30.4762 30.47623c0 16.8315 13.6447 30.4762 30.4762 30.4762z" fill="url(#e)" opacity=".5"/><path d="m40.5713 60.5906c-8.781 0-11.581-9.4095-8.9143-7.9429 3.5809 1.981 5.8667 2.1715 8.9143 2.1715s5.3143-.1905 8.9143-2.1715c2.6666-1.4666-.1334 7.9429-8.9143 7.9429z" fill="#643800"/><path d="m49.4857 52.6479c-3.5809 1.9809-5.8666 2.1714-8.9142 2.1714-3.0477 0-5.3143-.1905-8.9143-2.1714-.9334-.5143-1.2.2857-.781 1.5619 0-.019.1333-1.3905 1.3905-.4381 0 0 4.6286 2.781 8.2857 2.781s8.2857-2.781 8.2857-2.781c1.2572-.9333 1.3905.4191 1.3905.4381.4571-1.2571.1905-2.0762-.7429-1.5619z" fill="url(#g)"/><path d="m33.9236 29.2195c.1714-1.2191-1.0476-2.1524-3.2953-2.4381-1.9238-.2476-6.2476.2286-9.6571 3.5619-.6286.6095.1524 1.1048.7238.7238 1.981-1.2762 7.0095-2.5714 10.6667-1.6762 1.4857.3619 1.5619-.1714 1.5619-.1714z" fill="url(#i)"/><path d="m47.2191 29.2195c-.1715-1.2191 1.0476-2.1524 3.2952-2.4381 1.9238-.2476 6.2476.2286 9.6571 3.5619.6286.6095-.1523 1.1048-.7238.7238-1.9809-1.2762-7.0095-2.5714-10.6666-1.6762-1.4857.3619-1.5619-.1714-1.5619-.1714z" fill="url(#j)"/><path d="m53.2 36.6286s5.0285.8762 6.1523 4.8c.0762.2476.0953.5143.0762.7619-.0381.5143-.5523 1.0095-1.4095.4571-5.3333-3.4476-8.6286-2.2476-11.0857-1.4095-.9524.3238-1.7143-.6857-1.3714-1.4857.0952-.2286.1714-.4762.3238-.6857 2.2857-3.3333 7.3143-2.4381 7.3143-2.4381z" fill="url(#l)"/><path d="m52.9906 37.8287s4.0952.7048 6.419 4.0571c-.019-.1523-.0381-.3047-.0762-.4571-1.1238-3.9238-6.1524-4.8-6.1524-4.8s-5.0095-.8952-7.3333 2.419c-.0952.1334-.1524.2667-.2095.4 3.2762-2.3428 7.3524-1.619 7.3524-1.619z" fill="url(#m)"/><path d="m27.943 36.6286s-5.0286.8762-6.1524 4.8c-.0762.2476-.0953.5143-.0762.7619.0381.5143.5524 1.0095 1.4095.4571 5.3333-3.4476 8.6286-2.2476 11.0857-1.4095.9524.3238 1.7143-.6857 1.3715-1.4857-.0953-.2286-.1715-.4762-.3239-.6857-2.2857-3.3333-7.3142-2.4381-7.3142-2.4381z" fill="url(#n)"/><path d="m28.1524 37.8287s-4.0952.7048-6.419 4.0571c.019-.1523.0381-.3047.0762-.4571 1.1238-3.9238 6.1524-4.8 6.1524-4.8s5.0095-.8952 7.3333 2.419c.0952.1334.1524.2667.2095.4-3.2762-2.3428-7.3524-1.619-7.3524-1.619z" fill="url(#o)"/><path d="m40.5714 70.8003c16.8315 0 30.4762-13.6447 30.4762-30.4762 0-16.8316-13.6447-30.47623-30.4762-30.47623s-30.4762 13.64463-30.4762 30.47623c0 16.8315 13.6447 30.4762 30.4762 30.4762z" fill="url(#p)" opacity=".5"/><path d="m40.5714 70.8003c16.8315 0 30.4762-13.6447 30.4762-30.4762 0-16.8316-13.6447-30.47623-30.4762-30.47623s-30.4762 13.64463-30.4762 30.47623c0 16.8315 13.6447 30.4762 30.4762 30.4762z" fill="url(#q)" opacity=".5"/><path d="m40.5714 70.8003c16.8315 0 30.4762-13.6447 30.4762-30.4762 0-16.8316-13.6447-30.47623-30.4762-30.47623s-30.4762 13.64463-30.4762 30.47623c0 16.8315 13.6447 30.4762 30.4762 30.4762z" fill="url(#r)" opacity=".5"/><path d="m61.0477 7.80954c-1.8476 0-3.4857.93333-4.4572 2.34286-.9714-1.40953-2.6095-2.34286-4.4571-2.34286-2.9905 0-5.4095 2.41906-5.4095 5.40956 0 6.5904 9.8666 12.5143 9.8666 12.5143s9.8667-5.9239 9.8667-12.5143c0-2.9905-2.419-5.40956-5.4095-5.40956z" fill="url(#t)"/><path d="m63.2762 8.28574c2.9524 4.72376.2286 10.91426-3.0476 12.66666-3.6191 1.9429-6.0762 1.0286-11.2-1.8857 2.9142 3.8667 7.5428 6.6476 7.5428 6.6476s9.8667-5.9238 9.8667-12.5143c.019-2.1714-1.2762-4.05712-3.1619-4.91426z" fill="url(#v)" opacity=".5"/><path d="m61.0477 7.80954c-1.8476 0-3.4857.93333-4.4572 2.34286-.9714-1.40953-2.6095-2.34286-4.4571-2.34286-2.9905 0-5.4095 2.41906-5.4095 5.40956 0 6.5904 9.8666 12.5143 9.8666 12.5143s9.8667-5.9239 9.8667-12.5143c0-2.9905-2.419-5.40956-5.4095-5.40956z" fill="url(#x)" opacity=".5"/><path d="m61.0477 7.80954c-1.8476 0-3.4857.93333-4.4572 2.34286-.9714-1.40953-2.6095-2.34286-4.4571-2.34286-2.9905 0-5.4095 2.41906-5.4095 5.40956 0 6.5904 9.8666 12.5143 9.8666 12.5143s9.8667-5.9239 9.8667-12.5143c0-2.9905-2.419-5.40956-5.4095-5.40956z" fill="url(#z)" opacity=".5"/><path d="m55.2383 9.99995c.5333 1.27615-.6667 3.00955-2.6857 3.86665-2.0191.8572-4.1143.5333-4.6477-.7428-.5333-1.2762.6667-3.0096 2.6858-3.86671 2.019-.85714 4.1142-.53333 4.6476.74286z" fill="url(#B)" opacity=".24"/><path d="m61.8477 8.97168c.7619.85715.3048 2.53332-1.0666 3.75242-1.3524 1.219-3.0667 1.5238-3.8477.6666-.7619-.8571-.3047-2.5333 1.0667-3.75235 1.3524-1.21905 3.0857-1.52381 3.8476-.66667z" fill="url(#C)" opacity=".24"/><path d="m61.1429 9.23818c2.7047.93332 5.2952 4.93332.9333 9.92382-2.6286 2.9905-5.4857 4.4952-9.1238 3.9048 1.9619 1.638 3.6381 2.6476 3.6381 2.6476s9.8667-5.9238 9.8667-12.5143c0-2.9905-2.4191-5.40954-5.4096-5.40954-1.8476 0-3.4857.93333-4.4571 2.34284 0 .0191 2.5714-1.56189 4.5524-.89522z" fill="url(#E)" opacity=".32"/><path d="m22.5142 46.362c-1.8476 0-3.4857.9333-4.4571 2.3428-.9714-1.4285-2.6095-2.3428-4.4571-2.3428-2.9905 0-5.40957 2.419-5.40957 5.3904 0 6.5905 9.86667 12.5143 9.86667 12.5143s9.8667-5.9238 9.8667-12.5143c0-2.9714-2.4191-5.3904-5.4096-5.3904z" fill="url(#F)"/><path d="m24.7427 46.8381c2.9524 4.7238.2286 10.9143-3.0476 12.6667-3.619 1.9429-6.0762 1.0286-11.2-1.8857 2.9143 3.8667 7.5429 6.6476 7.5429 6.6476s9.8666-5.9238 9.8666-12.5143c.0191-2.1905-1.2762-4.0762-3.1619-4.9143z" fill="url(#G)" opacity=".5"/><path d="m22.5142 46.362c-1.8476 0-3.4857.9333-4.4571 2.3428-.9714-1.4285-2.6095-2.3428-4.4571-2.3428-2.9905 0-5.40957 2.419-5.40957 5.3904 0 6.5905 9.86667 12.5143 9.86667 12.5143s9.8667-5.9238 9.8667-12.5143c0-2.9714-2.4191-5.3904-5.4096-5.3904z" fill="url(#H)" opacity=".5"/><path d="m22.5142 46.362c-1.8476 0-3.4857.9333-4.4571 2.3428-.9714-1.4285-2.6095-2.3428-4.4571-2.3428-2.9905 0-5.40957 2.419-5.40957 5.3904 0 6.5905 9.86667 12.5143 9.86667 12.5143s9.8667-5.9238 9.8667-12.5143c0-2.9714-2.4191-5.3904-5.4096-5.3904z" fill="url(#I)" opacity=".5"/><path d="m16.7048 48.5524c.5334 1.2762-.6666 3.0096-2.6857 3.8667-2.019.8572-4.11427.5333-4.6476-.7428-.53333-1.2762.6667-3.0096 2.6857-3.8667 2.0191-.8762 4.1143-.5333 4.6476.7428z" fill="url(#J)" opacity=".24"/><path d="m23.3144 47.5241c.7619.8572.3048 2.5334-1.0666 3.7524-1.3524 1.2191-3.0667 1.5238-3.8476.6667-.781-.8572-.3048-2.5333 1.0666-3.7524 1.3524-1.219 3.0857-1.5238 3.8476-.6667z" fill="url(#K)" opacity=".24"/><path d="m22.6094 47.7906c2.7048.9334 5.2953 4.9334.9334 9.9238-2.6286 2.9905-5.4858 4.4953-9.1239 3.9048 1.962 1.6381 3.6381 2.6476 3.6381 2.6476s9.8667-5.9238 9.8667-12.5143c0-2.9904-2.419-5.4095-5.4095-5.4095-1.8476 0-3.4857.9334-4.4572 2.3429 0 .019 2.5715-1.581 4.5524-.8953z" fill="url(#L)" opacity=".32"/><path d="m66.4 54.1715c-1.8476 0-3.4857.9333-4.4572 2.3429-.9714-1.4286-2.6095-2.3429-4.4571-2.3429-2.9905 0-5.4095 2.4191-5.4095 5.4095 0 6.5905 9.8666 12.5143 9.8666 12.5143s9.8667-5.9238 9.8667-12.5143c0-2.9904-2.419-5.4095-5.4095-5.4095z" fill="url(#M)"/><path d="m68.6475 54.6477c2.9524 4.7238.2286 10.9143-3.0476 12.6667-3.619 1.9428-6.0762 1.0285-11.2-1.8857 2.9143 3.8666 7.5429 6.6476 7.5429 6.6476s9.8666-5.9238 9.8666-12.5143c0-2.1905-1.2952-4.0762-3.1619-4.9143z" fill="url(#N)" opacity=".5"/><path d="m66.4 54.1715c-1.8476 0-3.4857.9333-4.4572 2.3429-.9714-1.4286-2.6095-2.3429-4.4571-2.3429-2.9905 0-5.4095 2.4191-5.4095 5.4095 0 6.5905 9.8666 12.5143 9.8666 12.5143s9.8667-5.9238 9.8667-12.5143c0-2.9904-2.419-5.4095-5.4095-5.4095z" fill="url(#O)" opacity=".5"/><path d="m66.4 54.1715c-1.8476 0-3.4857.9333-4.4572 2.3429-.9714-1.4286-2.6095-2.3429-4.4571-2.3429-2.9905 0-5.4095 2.4191-5.4095 5.4095 0 6.5905 9.8666 12.5143 9.8666 12.5143s9.8667-5.9238 9.8667-12.5143c0-2.9904-2.419-5.4095-5.4095-5.4095z" fill="url(#P)" opacity=".5"/><path d="m60.5906 56.362c.5333 1.2762-.6667 3.0095-2.6857 3.8666-2.0191.8572-4.1143.5334-4.6477-.7428-.5333-1.2762.6667-3.0095 2.6858-3.8667 2.019-.8762 4.1143-.5333 4.6476.7429z" fill="url(#Q)" opacity=".24"/><path d="m67.2003 55.3337c.7619.8571.3047 2.5333-1.0667 3.7524-1.3524 1.219-3.0667 1.5238-3.8476.6666-.7619-.8571-.3048-2.5333 1.0666-3.7524 1.3524-1.219 3.0858-1.5238 3.8477-.6666z" fill="url(#R)" opacity=".24"/><path d="m66.4952 55.6002c2.7047.9333 5.2952 4.9333.9333 9.9238-2.6286 2.9905-5.4857 4.4952-9.1238 3.9047 1.9619 1.6381 3.6381 2.6477 3.6381 2.6477s9.8666-5.9238 9.8666-12.5143c0-2.9905-2.419-5.4095-5.4095-5.4095-1.8476 0-3.4857.9333-4.4571 2.3428 0 .0191 2.5714-1.5809 4.5524-.8952z" fill="url(#S)" opacity=".32"/></svg>