<svg xmlns="http://www.w3.org/2000/svg" width="19" height="19" viewBox="0 0 19 19">
  <g id="noun-star-coin-4714716" transform="translate(-113.755 -43.742)">
    <path id="Path_3004" data-name="Path 3004" d="M123.255,43.742a9.51,9.51,0,1,0,6.714,2.785,9.5,9.5,0,0,0-6.714-2.785Zm0,18.3a8.806,8.806,0,1,1,6.217-2.579,8.8,8.8,0,0,1-6.217,2.579Z" transform="translate(0)" fill="#fff"/>
    <path id="Path_3006" data-name="Path 3006" d="M252.424,174.428l-2.771-.009L248.8,171.8a.887.887,0,0,0-1.687,0l-.865,2.632h-2.758a.887.887,0,0,0-.523,1.6l2.236,1.637-.852,2.622h0a.884.884,0,0,0,1.364.991l2.248-1.62,2.231,1.62h0a.886.886,0,0,0,1.364-.991l-.847-2.638,2.232-1.621h0a.886.886,0,0,0-.519-1.6Zm-2.223,2.519a.885.885,0,0,0-.322.991l.831,2.639-2.232-1.621h0a.884.884,0,0,0-1.042,0l-2.252,1.605.853-2.623a.884.884,0,0,0-.322-.991l-2.224-1.646h2.758a.884.884,0,0,0,.843-.611l.873-2.632a.029.029,0,0,1,0,.009l.854,2.623a.884.884,0,0,0,.843.611l2.766.025Z" transform="translate(-124.703 -123.311)" fill="#fff"/>
    <path id="Path_3007" data-name="Path 3007" d="M140.1,271.3a.367.367,0,0,0-.1.25.352.352,0,0,0,.6.25.363.363,0,0,0,.1-.25.352.352,0,0,0-.6-.25Z" transform="translate(-25.19 -218.31)" fill="#fff"/>
    <path id="Path_3008" data-name="Path 3008" d="M199.069,413.751a.346.346,0,0,0-.077.113.376.376,0,0,0-.018.067.22.22,0,0,0-.007.067.344.344,0,0,0,.352.352.333.333,0,0,0,.246-.1.353.353,0,0,0,.106-.25.343.343,0,0,0-.106-.246A.357.357,0,0,0,199.069,413.751Z" transform="translate(-81.785 -355.034)" fill="#fff"/>
    <path id="Path_3009" data-name="Path 3009" d="M341.848,472.709a.368.368,0,0,0-.5,0,.362.362,0,0,0-.074.116.3.3,0,0,0-.028.134.348.348,0,0,0,.486.324.407.407,0,0,0,.116-.074.348.348,0,0,0,.074-.383A.362.362,0,0,0,341.848,472.709Z" transform="translate(-218.343 -411.623)" fill="#fff"/>
    <path id="Path_3010" data-name="Path 3010" d="M483.631,413.785a.344.344,0,0,0-.106.246.369.369,0,0,0,.028.137.305.305,0,0,0,.077.113.347.347,0,0,0,.113.077.34.34,0,0,0,.134.025.343.343,0,0,0,.137-.025.367.367,0,0,0,.19-.19.356.356,0,0,0,.025-.137.34.34,0,0,0-.1-.246A.36.36,0,0,0,483.631,413.785Z" transform="translate(-354.901 -355.068)" fill="#fff"/>
    <path id="Path_3011" data-name="Path 3011" d="M543.1,271.347a.407.407,0,0,0-.116-.074.333.333,0,0,0-.2-.021.221.221,0,0,0-.063.021.279.279,0,0,0-.064.032l-.052.042h0a.367.367,0,0,0-.1.25.348.348,0,0,0,.486.324.407.407,0,0,0,.116-.074.349.349,0,0,0,.1-.25A.362.362,0,0,0,543.1,271.347Z" transform="translate(-411.503 -218.354)" fill="#fff"/>
    <path id="Path_3012" data-name="Path 3012" d="M483.872,129.718a.351.351,0,0,0,.137-.028.307.307,0,0,0,.113-.078.344.344,0,0,0,.077-.112.339.339,0,0,0,.025-.134.357.357,0,0,0-.025-.137.346.346,0,0,0-.077-.113.357.357,0,0,0-.5,0,.3.3,0,0,0-.077.113.364.364,0,0,0-.028.137.349.349,0,0,0,.106.246.343.343,0,0,0,.246.106Z" transform="translate(-354.896 -81.845)" fill="#fff"/>
    <path id="Path_3013" data-name="Path 3013" d="M341.35,70.708a.362.362,0,0,0,.383.077.515.515,0,0,0,.116-.077.409.409,0,0,0,.074-.116.331.331,0,0,0,0-.267.362.362,0,0,0-.074-.116.368.368,0,0,0-.5,0,.4.4,0,0,0-.074.116.3.3,0,0,0-.028.134.35.35,0,0,0,.024.134.53.53,0,0,0,.078.116Z" transform="translate(-218.345 -25.308)" fill="#fff"/>
    <path id="Path_3014" data-name="Path 3014" d="M199.188,129.751a.352.352,0,0,0,.137.028.342.342,0,0,0,.246-.106.349.349,0,0,0,.106-.246.365.365,0,0,0-.028-.137.305.305,0,0,0-.078-.113.363.363,0,0,0-.5,0,.344.344,0,0,0-.077.113.363.363,0,0,0-.025.137.345.345,0,0,0,.1.246A.306.306,0,0,0,199.188,129.751Z" transform="translate(-81.791 -81.906)" fill="#fff"/>
  </g>
</svg>
