<svg xmlns="http://www.w3.org/2000/svg" xmlns:xlink="http://www.w3.org/1999/xlink" width="42.998" height="22.365" viewBox="0 0 42.998 22.365">
  <defs>
    <linearGradient id="linear-gradient" x1="0.5" x2="0.5" y2="0.877" gradientUnits="objectBoundingBox">
      <stop offset="0" stop-color="#00bec1"/>
      <stop offset="0.537" stop-color="#35dbd8"/>
      <stop offset="1" stop-color="#05fff4"/>
    </linearGradient>
  </defs>
  <g id="Group_590" data-name="Group 590" transform="translate(0.51 0.5)">
    <g id="Group_591" data-name="Group 591">
      <path id="Union_1" data-name="Union 1" d="M11.308,21.365a8.389,8.389,0,0,1,6.256-7.688,3.767,3.767,0,0,0,5.558,0,8.66,8.66,0,0,1,5.945,5.683v2.005Zm-.361-3.29H0a7.718,7.718,0,0,1,1.858-4.85,9.18,9.18,0,0,1,4.4-2.838,3.983,3.983,0,0,0,2.778,1.224,3.985,3.985,0,0,0,2.779-1.224,9.089,9.089,0,0,1,4.243,2.658,8.6,8.6,0,0,0-5.109,5.03Zm31.04-.748h-12.6a8.681,8.681,0,0,0-4-3.892,9.028,9.028,0,0,1,5.094-3.8,3.764,3.764,0,0,0,5.557,0,9.228,9.228,0,0,1,3.721,2.121,8.078,8.078,0,0,1,2.223,3.56v2.006h0ZM16.508,8.5c0-2.18,1.485-4.46,3.834-4.46s3.835,2.281,3.835,4.46-1.485,4.458-3.835,4.458S16.508,10.679,16.508,8.5ZM5.2,5.208C5.2,3.064,6.666.748,9.034.748s3.835,2.316,3.835,4.46S11.4,9.666,9.034,9.666,5.2,7.352,5.2,5.208ZM29.43,4.46C29.43,2.315,30.9,0,33.265,0S37.1,2.315,37.1,4.46s-1.466,4.458-3.834,4.458S29.43,6.6,29.43,4.46Z" stroke="rgba(0,0,0,0)" stroke-width="1" fill="url(#linear-gradient)"/>
    </g>
  </g>
</svg>
