<svg xmlns="http://www.w3.org/2000/svg" width="14.842" height="12" viewBox="0 0 14.842 12">
  <g id="noun-vip-4775476" transform="translate(-92.169 -72.343)">
    <path id="Path_2994" data-name="Path 2994" d="M106.875,74.532a.375.375,0,0,0-.387-.063l-4.3,1.778L99.92,71.556a.377.377,0,0,0-.679,0L96.977,76.25l-4.3-1.781a.377.377,0,0,0-.5.435l1.258,5.31v2.752a.377.377,0,0,0,.36.377h11.571a.377.377,0,0,0,.377-.377V80.214L107,74.9h0a.372.372,0,0,0-.126-.372ZM105,82.581H94.18V80.549H105Zm.078-2.795H94.095l-1.021-4.339L97.02,77.09a.375.375,0,0,0,.483-.184l2.078-4.319,2.078,4.309a.375.375,0,0,0,.483.184l3.947-1.633Z" transform="translate(0 1)" fill="#ffc107"/>
  </g>
</svg>
